<svg width="108" height="135" viewBox="0 0 108 135" fill="none" xmlns="http://www.w3.org/2000/svg">
<path fill-rule="evenodd" clip-rule="evenodd" d="M53.6634 33.4141L11.3438 56.3334L53.5877 79.3194L95.98 56.3334L53.6634 33.4141Z" fill="#BBA4DD"/>
<path fill-rule="evenodd" clip-rule="evenodd" d="M80.5288 67.7981L71.9007 76.4564L59.7535 64.3396V92.6102L53.5634 95.9839L47.5125 92.7132V64.3396L35.3654 76.4564L26.7373 67.7981L53.633 40.9023L80.5288 67.7981Z" fill="white"/>
<path fill-rule="evenodd" clip-rule="evenodd" d="M53.5781 79.318V129.578L95.8948 106.659V56.4017V56.332L53.5781 79.318Z" fill="#6001D2"/>
<path fill-rule="evenodd" clip-rule="evenodd" d="M11.1846 56.4026V106.66L53.5799 129.579V79.3189L11.1846 56.3359V56.4026Z" fill="#330084"/>
<path fill-rule="evenodd" clip-rule="evenodd" d="M23.1195 70.7443C23.0458 72.395 23.9406 73.9404 25.4479 74.7479C25.5949 74.8301 26.8447 73.9052 27.0166 73.7996C27.3843 73.5775 27.7519 73.3433 28.1072 73.109C28.1559 73.0738 28.5239 72.8048 28.5608 72.8165C27.0531 72.0086 26.1586 70.4635 26.2323 68.8125C26.2323 68.836 25.7177 69.1171 25.7664 69.0819C25.3988 69.3044 25.0312 69.5269 24.6636 69.7608C24.296 69.9833 23.9284 70.2175 23.573 70.4518C23.4994 70.4987 23.1317 70.6857 23.1195 70.7443Z" fill="#FA7697"/>
<path fill-rule="evenodd" clip-rule="evenodd" d="M49.3532 72.2713C49.4836 74.374 51.4292 76.0165 53.41 75.7052C53.4457 75.7052 53.6474 75.1454 53.6236 75.2077C53.7896 74.7971 53.9557 74.3864 54.1217 73.9883C54.2881 73.578 54.4422 73.167 54.6083 72.7568C54.6321 72.6944 54.7624 72.2464 54.7981 72.2464C52.8172 72.5573 50.8716 70.9151 50.7409 68.8125C50.7409 68.8994 50.5396 69.2975 50.5277 69.31C50.3616 69.7206 50.1956 70.1313 50.0292 70.5294C49.8632 70.9401 49.709 71.3507 49.543 71.761C49.4955 71.8856 49.3413 72.1346 49.3532 72.2713Z" fill="#FFBC1F"/>
<path fill-rule="evenodd" clip-rule="evenodd" d="M69.1575 52.77C70.2113 54.6164 72.1144 55.8071 74.2098 55.9406C74.2571 55.9406 74.5926 55.5153 74.5689 55.5397C74.8557 55.2118 75.1316 54.896 75.4067 54.5681C75.6819 54.2399 75.9694 53.912 76.2445 53.5841C76.2925 53.5232 76.5321 53.171 76.58 53.171C74.485 53.0374 72.5815 51.8468 71.5277 50C71.5637 50.0609 70.4264 51.2515 70.3308 51.3728C70.2229 51.4942 69.0859 52.6487 69.1575 52.77Z" fill="#FFBC1F"/>
<path fill-rule="evenodd" clip-rule="evenodd" d="M81.5307 16.9024C81.4253 15.6153 80.7712 14.472 79.7977 13.862C79.775 13.85 79.5227 13.9984 79.5393 13.991C79.331 14.0984 79.1309 14.2016 78.9286 14.3119C78.7259 14.4222 78.5176 14.5292 78.3149 14.6395C78.2791 14.6611 78.0885 14.7938 78.0654 14.7813C79.0389 15.3913 79.6927 16.5346 79.7984 17.8217C79.7942 17.779 80.5955 17.4141 80.6676 17.3718C80.7453 17.3324 81.5385 16.9878 81.5307 16.9024Z" fill="#FFBC1F"/>
<path fill-rule="evenodd" clip-rule="evenodd" d="M50.8369 57.9199C50.9184 58.9745 50.9879 60.0286 51.0694 61.0827C51.0807 61.1826 52.0804 61.4677 52.1848 61.4958C52.2896 61.5386 53.3009 61.7951 53.3122 61.8803C53.231 60.8262 53.1611 59.7721 53.08 58.718C53.068 58.6181 52.0687 58.333 51.9643 58.3045C51.8595 58.2759 50.8486 58.0056 50.8369 57.9199Z" fill="#FA7697"/>
<path fill-rule="evenodd" clip-rule="evenodd" d="M25.0947 50.9993C25.8851 51.4961 26.6867 51.9787 27.4771 52.4755C27.5422 52.5177 28.5167 49.9635 28.5601 49.9919C27.7694 49.4951 26.9681 49.0125 26.1777 48.5162C26.1126 48.4731 25.1273 51.0135 25.0947 50.9993Z" fill="#FF8164"/>
<path fill-rule="evenodd" clip-rule="evenodd" d="M46.877 23.0232C47.2156 23.2716 47.5591 23.5128 47.898 23.7612C47.9257 23.7825 48.3434 22.5054 48.3621 22.5195C48.0231 22.2711 47.6797 22.0299 47.341 21.7815C47.3131 21.7606 46.8909 23.0304 46.877 23.0232Z" fill="#FF8164"/>
<path fill-rule="evenodd" clip-rule="evenodd" d="M72.6196 24.2489C72.2807 23.1008 71.954 21.9417 71.6151 20.7936C71.6151 20.7721 69.1543 21.2875 69.1543 21.2979C69.4932 22.4463 69.8195 23.6048 70.1584 24.7532C70.1584 24.7639 72.6196 24.2596 72.6196 24.2489Z" fill="white"/>
<mask id="mask0_23_2022" style="mask-type:luminance" maskUnits="userSpaceOnUse" x="15" y="72" width="4" height="4">
<path fill-rule="evenodd" clip-rule="evenodd" d="M15.1943 72.2383H18.6597V75.7036H15.1943V72.2383Z" fill="white"/>
</mask>
<g mask="url(#mask0_23_2022)">
<path fill-rule="evenodd" clip-rule="evenodd" d="M15.1943 72.259C15.3816 73.3967 15.5685 74.5341 15.7697 75.6605C15.7841 75.7843 18.6453 75.5928 18.6597 75.6831C18.4728 74.5454 18.2856 73.408 18.0843 72.2816C18.0699 72.1575 15.2087 72.349 15.1943 72.259Z" fill="#FF8164"/>
</g>
<path fill-rule="evenodd" clip-rule="evenodd" d="M18.706 51.7874C19.8372 52.1861 20.9681 52.571 22.1107 52.9702C22.0767 52.956 22.1107 51.7047 22.1107 51.5811C22.1107 51.4571 22.156 50.2197 22.088 50.1921C20.9568 49.7934 19.8259 49.4085 18.6833 49.0098C18.7173 49.0235 18.6833 50.2748 18.6833 50.3984C18.672 50.5361 18.6267 51.7736 18.706 51.7874Z" fill="#FF8164"/>
<path fill-rule="evenodd" clip-rule="evenodd" d="M26.8631 37.098C26.7648 38.2601 26.6773 39.4202 26.5811 40.5932C26.5856 40.5581 27.5819 40.3915 27.6799 40.3719C27.7779 40.3522 28.7659 40.1986 28.7746 40.1284C28.8729 38.9663 28.9604 37.8062 29.0563 36.6328C29.0521 36.6679 28.0558 36.8349 27.9575 36.8545C27.8466 36.8654 26.8586 37.0187 26.8631 37.098Z" fill="#FFBC1F"/>
<path fill-rule="evenodd" clip-rule="evenodd" d="M91.9268 64.3574C92.1643 65.4803 92.4159 66.6153 92.6535 67.7382C92.6671 67.835 93.8835 68.0161 94.023 68.0403C94.1486 68.0645 95.3785 68.2331 95.3921 68.3178C95.155 67.1949 94.9034 66.0599 94.6658 64.937C94.6518 64.8402 93.4358 64.6591 93.2963 64.6353C93.1567 64.6111 91.9408 64.4421 91.9268 64.3574Z" fill="#FA7697"/>
<path fill-rule="evenodd" clip-rule="evenodd" d="M105.422 54.9661C104.719 56.1115 104.016 57.257 103.313 58.3904C103.337 58.3541 104.386 58.6312 104.481 58.6554C104.588 58.6796 105.612 58.9812 105.66 58.8967C106.363 57.7512 107.066 56.6057 107.769 55.4724C107.745 55.5086 106.696 55.2315 106.601 55.2073C106.494 55.1832 105.47 54.8815 105.422 54.9661Z" fill="#3F67F2"/>
<path fill-rule="evenodd" clip-rule="evenodd" d="M77.6338 42.5742C77.4527 43.6886 77.2569 44.8026 77.0762 45.917C77.0611 46.0493 80.0143 46.4355 79.9837 46.5346C80.1648 45.4206 80.3606 44.3062 80.5413 43.1922C80.5719 43.0596 77.6187 42.6737 77.6338 42.5742Z" fill="#3F67F2"/>
<path fill-rule="evenodd" clip-rule="evenodd" d="M1.86847 8.52204C1.68695 9.94953 2.12275 11.3387 3.07848 12.3711C3.12698 12.435 4.08347 11.8866 4.19223 11.8356C4.28924 11.7849 5.24497 11.2369 5.29347 11.2749C4.33775 10.2552 3.88982 8.85367 4.08347 7.42578C4.07096 7.52794 3.09098 7.89749 2.96972 7.96134C2.82458 8.03796 1.89272 8.36919 1.86847 8.52204Z" fill="#FF8164"/>
<path fill-rule="evenodd" clip-rule="evenodd" d="M23.7289 24.2971C23.3896 25.3508 23.797 26.4607 24.792 27.1662C24.9505 27.2787 25.7198 27.2035 25.9346 27.2035C26.2057 27.213 26.4659 27.213 26.7374 27.2224C26.7942 27.2224 27.0313 27.1941 27.0767 27.2224C26.0817 26.5075 25.663 25.4071 26.0136 24.3538C25.9682 24.4852 23.7856 24.1468 23.7289 24.2971Z" fill="#30D6AF"/>
<path fill-rule="evenodd" clip-rule="evenodd" d="M73.632 31.2193C74.6988 31.7083 75.766 32.1843 76.8329 32.6733C76.7964 32.6607 76.954 31.5203 76.954 31.4199C76.9661 31.3072 77.1358 30.2045 77.0512 30.1664C75.9843 29.6779 74.9171 29.2015 73.8503 28.7129C73.8864 28.7254 73.7288 29.8658 73.7288 29.9663C73.7288 30.0789 73.547 31.1817 73.632 31.2193Z" fill="#30D6AF"/>
<path fill-rule="evenodd" clip-rule="evenodd" d="M62.2244 69.1565C62.6659 70.2589 63.8165 71.0723 65.2478 71.2865C65.3412 71.2972 65.9029 70.4623 65.9699 70.3768C66.0369 70.291 66.5987 69.4454 66.6791 69.4561C65.2612 69.2312 64.1106 68.4285 63.6557 67.3262C63.6959 67.4331 63.0139 68.1182 62.9331 68.2358C62.7593 68.45 62.5993 68.6641 62.425 68.878C62.3852 68.9316 62.211 69.1136 62.2244 69.1565Z" fill="#FA7697"/>
<path fill-rule="evenodd" clip-rule="evenodd" d="M40.8182 77.5104C40.5244 78.4064 40.2411 79.3028 39.9473 80.1988C39.968 80.1383 40.8918 80.0781 40.9966 80.068C41.1123 80.0478 42.0148 80.0074 42.0463 79.9169C42.3401 79.0209 42.6234 78.1246 42.9176 77.2285C42.8965 77.2887 41.9727 77.3493 41.8679 77.3594C41.7522 77.3694 40.8392 77.4199 40.8182 77.5104Z" fill="#FF8164"/>
<path fill-rule="evenodd" clip-rule="evenodd" d="M60.2432 29.2087H62.6012C62.6596 29.2087 62.6949 27.2285 62.7184 27.2285H60.3603C60.3133 27.2285 60.2667 29.2087 60.2432 29.2087Z" fill="#FA7697"/>
<path fill-rule="evenodd" clip-rule="evenodd" d="M53.8076 44.0603H56.1653C56.2241 44.0603 56.259 42.0801 56.2829 42.0801H53.9248C53.8778 42.0801 53.8308 44.0603 53.8076 44.0603Z" fill="#FA7697"/>
<path fill-rule="evenodd" clip-rule="evenodd" d="M33.5221 56.9831C34.036 58.2953 35.2074 59.0574 36.4267 58.8882C36.4982 58.8736 36.6894 57.9706 36.7134 57.872C36.7373 57.7735 36.9166 56.8559 36.9761 56.8559C35.7572 57.0255 34.5981 56.2634 34.0719 54.9512C34.1318 55.0926 33.8331 55.8118 33.7852 55.9674C33.7373 56.1507 33.4506 56.7997 33.5221 56.9831Z" fill="#3F67F2"/>
<path fill-rule="evenodd" clip-rule="evenodd" d="M47.99 76.7971C48.4917 77.272 49.2288 77.3648 49.8331 77.0244C49.8841 76.9933 49.7818 76.3221 49.7818 76.25C49.7716 76.1776 49.6693 75.496 49.71 75.4753C49.106 75.8161 48.3689 75.7233 47.8672 75.248C47.8774 75.2587 47.8774 75.496 47.8774 75.4753C47.8877 75.6613 47.9082 75.8472 47.9182 76.0227C47.9287 76.2086 47.9493 76.3942 47.9592 76.5698C47.9695 76.6112 47.9592 76.7764 47.99 76.7971Z" fill="#FF8164"/>
<path fill-rule="evenodd" clip-rule="evenodd" d="M91.4326 57.2097C91.4935 58.3108 92.0861 59.2726 93.0589 59.8998C93.1198 59.9413 93.8952 59.3281 93.9861 59.2726C94.0622 59.2168 94.8528 58.6036 94.898 58.6311C93.9104 58.004 93.3326 57.0285 93.2717 55.9414C93.2717 56.0387 92.4511 56.4987 92.3445 56.5686C92.2232 56.6523 91.4326 57.0704 91.4326 57.2097Z" fill="#30D6AF"/>
<path fill-rule="evenodd" clip-rule="evenodd" d="M79.5519 75.7012C79.7502 77.1321 80.5698 78.3693 81.8526 79.2059C81.9184 79.2545 82.8436 78.5633 82.9363 78.4904C83.0286 78.43 83.9542 77.7264 84.0072 77.7628C82.7248 76.938 81.9052 75.6891 81.7069 74.2578C81.7201 74.3429 80.7287 74.9007 80.6228 74.9732C80.504 75.0583 79.5391 75.5675 79.5519 75.7012Z" fill="#FA7697"/>
<mask id="mask1_23_2022" style="mask-type:luminance" maskUnits="userSpaceOnUse" x="91" y="74" width="4" height="3">
<path fill-rule="evenodd" clip-rule="evenodd" d="M91.6865 74.2793H94.0896V76.1582H91.6865V74.2793Z" fill="white"/>
</mask>
<g mask="url(#mask1_23_2022)">
<path fill-rule="evenodd" clip-rule="evenodd" d="M91.7496 75.6434C92.5294 75.8151 93.3096 75.9865 94.0898 76.1582C93.9525 76.1313 94.1845 74.8301 94.0261 74.7941C93.2463 74.6224 92.4664 74.4507 91.6865 74.2793C91.8235 74.3152 91.5915 75.6162 91.7496 75.6434Z" fill="#FF8164"/>
</g>
<path fill-rule="evenodd" clip-rule="evenodd" d="M74.2704 64.3142C75.0448 64.6627 75.8064 64.9987 76.5807 65.3473C76.5175 65.3214 76.5175 64.469 76.5048 64.3789C76.4921 64.2624 76.5048 63.4489 76.4158 63.4105C75.6414 63.0615 74.8798 62.7259 74.1055 62.377C74.1691 62.4028 74.1691 63.2552 74.1818 63.3458C74.1945 63.4618 74.1818 64.2753 74.2704 64.3142Z" fill="#FF8164"/>
<path fill-rule="evenodd" clip-rule="evenodd" d="M66.1414 77.7232C66.8849 77.6079 67.4651 77.123 67.6683 76.4623C67.6963 76.364 67.2575 75.9373 67.1985 75.8491C67.0884 75.7016 66.9708 75.5665 66.8604 75.419C66.8419 75.3928 66.7134 75.2601 66.7209 75.248C66.5286 75.9063 65.9375 76.3936 65.1943 76.509C65.2366 76.4991 65.6235 77.0603 65.6641 77.1221C65.7043 77.184 66.065 77.7312 66.1414 77.7232Z" fill="#FF8164"/>
<path fill-rule="evenodd" clip-rule="evenodd" d="M32.5453 66.832C32.3724 67.912 32.1992 69.0041 32.0264 70.0841C32.0135 70.1682 35.9761 70.7564 35.9632 70.7924C36.1361 69.7124 36.3089 68.62 36.4817 67.54C36.5083 67.4438 32.5453 66.8681 32.5453 66.832Z" fill="#FA7697"/>
<path fill-rule="evenodd" clip-rule="evenodd" d="M64.1806 56.4883C62.6621 55.8108 61.1429 55.1329 59.6244 54.4551C59.769 54.5212 58.5876 58.2693 58.7801 58.3621C60.2993 59.0399 61.8181 59.7178 63.337 60.3957C63.1924 60.3291 64.3855 56.5682 64.1806 56.4883Z" fill="white"/>
<path fill-rule="evenodd" clip-rule="evenodd" d="M41.4225 6.123C40.7323 5.897 40.0417 5.67131 39.3511 5.44531C39.4173 5.46729 38.8802 6.71664 38.9677 6.74782C39.6582 6.97352 40.3484 7.19952 41.039 7.42551C40.9733 7.40324 41.5154 6.14943 41.4225 6.123Z" fill="#3F67F2"/>
<path fill-rule="evenodd" clip-rule="evenodd" d="M14.2051 58.016C14.3411 59.2981 14.4922 60.5799 14.6287 61.8621C14.6439 61.9388 17.6704 61.7465 17.6704 61.785C17.5344 60.5032 17.3833 59.2211 17.2468 57.9393C17.2468 57.8622 14.2051 58.0417 14.2051 58.016Z" fill="#30D6AF"/>
<path fill-rule="evenodd" clip-rule="evenodd" d="M49.9661 48.061C49.2554 48.9158 49.1576 50.0089 49.6964 50.9611C49.7333 51.0258 50.5295 50.9611 50.6273 50.9611C50.7255 50.9611 51.5217 50.8963 51.5582 50.9502C51.0197 49.9981 51.1297 48.905 51.8278 48.0501C51.7791 48.1152 51.007 48.0501 50.8969 48.0501C50.7623 48.0501 50.0393 47.9746 49.9661 48.061Z" fill="#FF8164"/>
<path fill-rule="evenodd" clip-rule="evenodd" d="M63.2153 44.8772C62.1628 44.7661 61.1099 44.6547 60.0578 44.5547C60.0104 44.5547 59.7737 46.2123 59.75 46.2123C60.8025 46.3234 61.8551 46.4345 62.908 46.5348C62.9554 46.546 63.192 44.8772 63.2153 44.8772Z" fill="#FFBC1F"/>
<path fill-rule="evenodd" clip-rule="evenodd" d="M37.9041 29.7053C37.2693 30.296 36.6212 30.8741 35.9863 31.4647C36.0261 31.4269 37.4676 32.7342 37.5339 32.6712C38.1687 32.0806 38.8168 31.5025 39.4517 30.9118C39.3987 30.9496 37.9704 29.6424 37.9041 29.7053Z" fill="#3F67F2"/>
<path fill-rule="evenodd" clip-rule="evenodd" d="M17.1121 27.2307C16.4773 27.8214 15.8292 28.3994 15.1943 28.9901C15.2341 28.9523 16.6756 30.2596 16.7419 30.1966C17.3767 29.606 18.0248 29.0279 18.6597 28.4372C18.6067 28.475 17.1784 27.1678 17.1121 27.2307Z" fill="#3F67F2"/>
<path fill-rule="evenodd" clip-rule="evenodd" d="M49.1104 63.3672C48.0501 63.8175 46.9785 64.2681 45.9182 64.7291C45.7619 64.7936 46.2642 66.2734 46.1303 66.3375C47.1907 65.8872 48.2622 65.4369 49.3226 64.9759C49.4788 64.9114 48.9766 63.4313 49.1104 63.3672Z" fill="#3F67F2"/>
<path fill-rule="evenodd" clip-rule="evenodd" d="M45.8351 57.4282C44.4829 57.694 43.3788 58.7288 42.9197 60.1836C42.8575 60.3654 44.5077 61.2325 44.4584 61.3862C44.9296 59.9318 46.0212 58.897 47.3734 58.6312C47.2495 58.6592 46.7286 58.1136 46.6043 58.0155C46.4803 57.9038 46.0087 57.3862 45.8351 57.4282Z" fill="#FF8164"/>
<path fill-rule="evenodd" clip-rule="evenodd" d="M7.99944 34.6543C7.59305 35.5637 7.187 36.4727 6.78061 37.3817C6.71494 37.531 8.08711 38.4899 8.03244 38.6147C8.43849 37.7057 8.84489 36.7963 9.25128 35.8873C9.31729 35.7376 7.93377 34.7787 7.99944 34.6543Z" fill="#3F67F2"/>
<path fill-rule="evenodd" clip-rule="evenodd" d="M93.3992 49.535C91.6926 49.3316 90.1257 50.1455 88.9879 51.3919C87.6857 52.8158 87.0667 54.6093 86.7885 56.4913C86.2324 60.23 86.8012 64.3506 84.5385 67.6191C83.5906 68.9921 82.1875 69.9207 80.5193 70.1241C78.7371 70.3404 76.9671 69.8315 75.2229 69.5137C73.504 69.1959 71.6965 69.0175 70.0659 69.7809C68.5366 70.4929 67.424 71.8408 66.4259 73.1632C65.2627 74.6896 64.2012 76.2792 62.5452 77.3093C60.9906 78.2885 59.0061 78.7719 57.4135 77.6016C57.4764 77.6526 57.3629 78.4538 57.3502 78.5553C57.3379 78.6827 57.2113 79.4457 57.3122 79.5094C58.6646 80.5141 60.3459 80.3106 61.7869 79.5855C63.3669 78.797 64.4794 77.5256 65.5282 76.1267C66.5395 74.7787 67.5127 73.3416 68.8904 72.3242C70.3315 71.2558 72.0127 71.0014 73.757 71.2049C77.0811 71.5864 80.8731 73.2273 83.6412 70.4547C86.27 67.8349 86.2324 63.829 86.46 60.3829C86.6116 58.0936 86.9781 55.7538 88.3811 53.8715C89.5443 52.3201 91.2881 51.188 93.273 51.4297C93.273 51.4552 93.4622 49.5478 93.3992 49.535Z" fill="#FF8164"/>
<path fill-rule="evenodd" clip-rule="evenodd" d="M37.9539 45.5761C36.2473 45.3726 34.6804 46.1865 33.5425 47.4329C32.2404 48.8569 31.6214 50.6504 31.3432 52.5323C30.7871 56.271 31.3558 60.3916 29.0932 63.6601C28.1453 65.0331 26.7422 65.9617 25.074 66.1652C23.2918 66.3814 21.5218 65.8725 19.7776 65.5547C18.0587 65.237 16.2512 65.0586 14.6206 65.8219C13.0913 66.5339 11.9787 67.8818 10.9806 69.2043C9.81736 70.7306 8.75587 72.3202 7.09992 73.3503C5.54528 74.3295 3.56083 74.813 1.9682 73.6426C2.03113 73.6936 1.91754 74.4948 1.90488 74.5963C1.89261 74.7238 1.76596 75.4867 1.86688 75.5504C3.21927 76.5551 4.90056 76.3516 6.3416 75.6265C7.92156 74.838 9.03411 73.5666 10.0829 72.1677C11.0942 70.8198 12.0674 69.3826 13.4451 68.3652C14.8861 67.2969 16.5674 67.0424 18.3116 67.2459C21.6358 67.6274 25.4278 69.2684 28.1959 66.4957C30.8247 63.8759 30.7871 59.87 31.0147 56.4239C31.1663 54.1346 31.5328 51.7948 32.9358 49.9125C34.099 48.3611 35.8428 47.229 37.8277 47.4707C37.8277 47.4962 38.0169 45.5888 37.9539 45.5761Z" fill="#FF8164"/>
<path fill-rule="evenodd" clip-rule="evenodd" d="M56.9248 0.000244567C55.3809 0.758066 54.5064 2.28661 54.2269 3.94193C53.9058 5.83428 54.359 7.66301 55.1464 9.38017C56.708 12.7934 59.4216 15.9133 59.2944 19.8624C59.2432 21.5199 58.5686 23.0548 57.2777 24.1304C55.898 25.2786 54.1352 25.8167 52.4977 26.4998C50.8814 27.1692 49.2664 28.0027 48.3109 29.5238C47.4126 30.9471 47.2095 32.6731 47.0886 34.3159C46.9397 36.2179 46.9107 38.1173 46.0787 39.8742C45.3041 41.5336 43.8995 43.0139 41.9268 42.9053C42.0073 42.9135 42.3466 43.6419 42.391 43.7333C42.4499 43.846 42.7575 44.5497 42.8768 44.5479C44.5579 44.6492 45.8598 43.5665 46.6767 42.1802C47.5761 40.6658 47.8207 39.0033 47.9426 37.2695C48.0606 35.5985 48.0983 33.8739 48.7035 32.2788C49.3343 30.6069 50.6084 29.4818 52.1839 28.7035C55.1831 27.215 59.2587 26.5205 60.0794 22.7094C60.866 19.1013 58.6608 15.7882 56.9821 12.797C55.8673 10.8097 54.9055 8.6635 55.0627 6.33493C55.1979 4.41202 56.0484 2.52261 57.8468 1.64544C57.8606 1.66665 56.9846 -0.0233393 56.9248 0.000244567Z" fill="white"/>
<path fill-rule="evenodd" clip-rule="evenodd" d="M85.0094 32.6573C85.6068 33.7373 86.6381 34.2973 87.7024 34.1278C87.8 34.1151 88.05 33.0347 88.0931 32.9043C88.1367 32.7743 88.3757 31.6808 88.4624 31.6681C87.3876 31.8373 86.3668 31.2777 85.7693 30.1973C85.8237 30.3012 85.4222 31.2777 85.3786 31.4208C85.3242 31.5899 84.9223 32.5012 85.0094 32.6573Z" fill="#FFBC1F"/>
<path fill-rule="evenodd" clip-rule="evenodd" d="M88.9612 23.8825C89.2172 24.1525 89.659 24.2923 90.1155 24.2503C90.1574 24.2468 90.2645 23.9767 90.2832 23.9443C90.3013 23.9118 90.4038 23.6386 90.4412 23.635C89.9807 23.6774 89.5429 23.5376 89.2869 23.2676C89.3101 23.2937 89.1379 23.5376 89.1192 23.5736C89.096 23.6156 88.9244 23.8433 88.9612 23.8825Z" fill="#FFBC1F"/>
<path fill-rule="evenodd" clip-rule="evenodd" d="M99.8477 44.0586C100.29 44.6756 100.732 45.2825 101.174 45.8995C101.231 45.9693 102.115 45.9693 102.243 45.9793C102.372 45.9892 103.27 45.9793 103.313 46.0388C102.871 45.4218 102.428 44.8148 101.987 44.1979C101.93 44.1284 101.046 44.1284 100.917 44.1181C100.803 44.1084 99.9048 44.1284 99.8477 44.0586Z" fill="#FFBC1F"/>
<path fill-rule="evenodd" clip-rule="evenodd" d="M67.6699 38.6133C67.9637 39.4096 68.2574 40.2063 68.5515 41.0134C68.5855 41.1101 69.2409 41.2607 69.3429 41.3039C69.4558 41.347 70.1112 41.4761 70.1452 41.5836C69.8511 40.7873 69.5573 39.9906 69.2636 39.1835C69.2296 39.0868 68.5742 38.9361 68.4726 38.893C68.3593 38.8502 67.7039 38.71 67.6699 38.6133Z" fill="#FF8164"/>
<path fill-rule="evenodd" clip-rule="evenodd" d="M84.0059 41.3135C84.7407 41.8931 85.4752 42.4852 86.21 43.0649C86.3309 43.1637 87.3727 41.7699 87.4712 41.8561C86.7364 41.2764 86.0016 40.6847 85.2671 40.1046C85.1462 40.0062 84.1044 41.3876 84.0059 41.3135Z" fill="#FF8164"/>
</svg>
