<svg width="139" height="31" viewBox="0 0 139 31" fill="none" xmlns="http://www.w3.org/2000/svg">
<path fill-rule="evenodd" clip-rule="evenodd" d="M9.91914 13.8148L7.4702 12.921C6.43832 12.6448 6.19852 12.1943 6.19852 11.7438C6.20992 11.5949 6.25179 11.45 6.32151 11.318C6.39123 11.186 6.48731 11.0697 6.60381 10.9764C6.72032 10.883 6.85479 10.8146 6.99882 10.7754C7.14285 10.7361 7.2934 10.7269 7.44115 10.7482C7.95709 10.7482 8.81455 10.9517 9.19969 12.3324L13.8432 11.1987C13.2618 8.19758 10.7112 6.19922 7.20133 6.19922C3.56796 6.19922 0.450535 8.19757 0.450535 11.642C0.450535 13.9528 1.72223 15.9149 4.68707 16.9467L7.30308 17.9132C8.23322 18.1894 8.43669 18.6399 8.43669 19.0468C8.43669 19.7735 7.74634 20.1877 6.92519 20.1877C6.39975 20.1857 5.89092 20.0034 5.4836 19.6715C5.07628 19.3396 4.79514 18.878 4.68707 18.3638L0 19.6354C0.552273 23.1453 3.34269 24.8021 7.02694 24.8021C11.1908 24.8021 14.2937 22.6657 14.2937 19.0468C14.2937 15.7114 11.6414 14.367 9.91914 13.8148Z" fill="#F2F2F2"/>
<path fill-rule="evenodd" clip-rule="evenodd" d="M26.749 6.19922C23.6461 6.19922 21.9602 7.92143 21.8222 8.2339H21.7205V6.54801H15.7617V31.0007H21.7205V22.7674H21.8222C21.9602 23.0799 23.6461 24.8021 26.749 24.8021C30.7821 24.8021 35.2584 21.7719 35.2584 15.5007C35.2584 9.22945 30.7966 6.19922 26.749 6.19922ZM25.521 19.5119C24.718 19.5394 23.9251 19.3265 23.244 18.9004C22.5628 18.4743 22.0245 17.8544 21.6979 17.1203C21.3714 16.3862 21.2716 15.5713 21.4112 14.7801C21.5509 13.9889 21.9237 13.2574 22.4819 12.6795C23.04 12.1016 23.7581 11.7035 24.5439 11.5364C25.3298 11.3693 26.1476 11.4407 26.8927 11.7414C27.6377 12.0422 28.2759 12.5587 28.7255 13.2246C29.1751 13.8905 29.4155 14.6754 29.4159 15.4789C29.4473 16.005 29.3691 16.5318 29.1863 17.0261C29.0035 17.5204 28.72 17.9714 28.3539 18.3505C27.9878 18.7296 27.5469 19.0286 27.0593 19.2285C26.5717 19.4284 26.0478 19.5249 25.521 19.5119Z" fill="#F2F2F2"/>
<path fill-rule="evenodd" clip-rule="evenodd" d="M49.9081 8.2339H49.8063C49.6683 7.92143 47.9824 6.19922 44.8432 6.19922C40.8537 6.19922 36.3701 9.22945 36.3701 15.5007C36.3701 21.7719 40.8537 24.8021 44.8432 24.8021C47.9824 24.8021 49.6683 23.0799 49.8063 22.7674H49.9081V24.4606H55.8668V6.54801H49.9081V8.2339ZM46.1221 19.5119C45.083 19.4678 44.1012 19.024 43.3816 18.2731C42.662 17.5223 42.2602 16.5225 42.2602 15.4825C42.2602 14.4425 42.662 13.4427 43.3816 12.6919C44.1012 11.9411 45.083 11.4972 46.1221 11.4531C47.1612 11.4972 48.143 11.9411 48.8626 12.6919C49.5823 13.4427 49.984 14.4425 49.984 15.4825C49.984 16.5225 49.5823 17.5223 48.8626 18.2731C48.143 19.024 47.1612 19.4678 46.1221 19.5119Z" fill="#F2F2F2"/>
<path fill-rule="evenodd" clip-rule="evenodd" d="M66.0334 17.5719V11.228H69.8194V6.54821H66.0334V1.96289H60.0746V6.54821H57.3496V11.228H60.0746V18.4948C60.0746 22.9711 62.6544 24.6933 66.2369 24.6933C67.5812 24.6933 69.2017 24.4535 69.8703 23.6978V19.1851C69.3226 19.3604 68.752 19.4534 68.1771 19.4612C66.513 19.4322 66.0334 18.3931 66.0334 17.5719Z" fill="#F2F2F2"/>
<path fill-rule="evenodd" clip-rule="evenodd" d="M80.0504 11.5179C80.733 11.5421 81.4003 11.7264 81.9986 12.0558C82.5969 12.3853 83.1094 12.8507 83.4949 13.4145L87.7968 10.5877C87.0177 9.22727 85.8881 8.10056 84.5258 7.32481C83.1634 6.54905 81.618 6.15265 80.0504 6.17682C75.2253 6.17682 70.4365 9.38146 70.4365 15.4419C70.4365 21.5024 75.2253 24.7797 80.0504 24.7797C81.6116 24.789 83.148 24.3886 84.506 23.6184C85.864 22.8482 86.9962 21.7353 87.7895 20.3906L83.4876 17.5711C83.1014 18.1336 82.5885 18.5975 81.9902 18.9257C81.392 19.2538 80.7251 19.437 80.0432 19.4604C79.0343 19.3993 78.0868 18.9554 77.3941 18.2194C76.7013 17.4834 76.3156 16.5108 76.3156 15.5C76.3156 14.4893 76.7013 13.5167 77.3941 12.7807C78.0868 12.0447 79.0343 11.6008 80.0432 11.5397L80.0504 11.5179Z" fill="#F2F2F2"/>
<path fill-rule="evenodd" clip-rule="evenodd" d="M100.339 6.19852C99.3556 6.1576 98.3769 6.35961 97.4898 6.78672C96.6026 7.21383 95.8343 7.85289 95.2527 8.64741V0H89.2939V24.4599H95.2527V14.9477C95.2527 13.0874 96.1174 11.4742 98.1158 11.4742C100.114 11.4742 101.022 13.0874 101.022 14.9477V24.4599H106.981V13.9158C106.988 8.43668 103.958 6.19852 100.339 6.19852Z" fill="#F2F2F2"/>
<path fill-rule="evenodd" clip-rule="evenodd" d="M135.445 0.966797H115.556V10.4136L117.736 12.5936L112.054 18.2544L117.736 23.8934H126.289L128.469 21.7642L129.24 23.8934H138.89V4.27321L135.445 0.966797ZM134.523 19.6714H128.411V13.3857L119.153 22.5418L114.793 18.2689L124.044 9.12739H117.722V3.08145H134.493L134.523 19.6714Z" fill="#F2F2F2"/>
</svg>
