<svg width="30" height="24" viewBox="0 0 30 24" fill="none" xmlns="http://www.w3.org/2000/svg">
<path fill-rule="evenodd" clip-rule="evenodd" d="M3.8446 2.50063L5.38621 0.515527C5.63879 0.190283 6.02748 0 6.43928 0H7.38067L6.75217 2.82827V5.02537C6.75217 5.25725 7.03307 5.37277 7.19621 5.20797C7.29778 5.10536 7.46357 5.10536 7.56514 5.20797L7.69493 5.33908C7.86797 5.51389 8.15039 5.51389 8.32343 5.33908L8.45321 5.20797C8.55479 5.10536 8.72058 5.10536 8.82215 5.20797C8.98528 5.37277 9.26619 5.25725 9.26619 5.02537V2.82827L8.63768 0H9.57826C9.99006 0 10.3788 0.190283 10.6313 0.515527L12.1729 2.50063C12.3546 2.73454 12.4532 3.02227 12.4532 3.31843V7.67496C12.4532 8.41134 11.8562 9.0083 11.1199 9.0083H4.89768C4.1613 9.0083 3.56434 8.41134 3.56434 7.67496V3.31843C3.56434 3.02227 3.66295 2.73454 3.8446 2.50063ZM14.4034 4.73419C14.3092 4.37522 14.4705 4.15272 14.9649 4.15272L17.6408 4.15234C18.137 4.15234 18.6848 4.41156 18.8694 4.73382L19.8906 6.34696H21.027C22.0614 6.34696 22.8962 7.19655 22.8962 8.25121C22.8962 8.89795 22.579 9.4657 22.0983 9.80983L24.8403 14.1115C24.9599 14.3181 25.246 14.5187 25.4768 14.581C27.7211 15.1773 29.3765 17.2292 29.3765 19.67H28.0073C28.0218 19.8071 28.0292 19.9463 28.0292 20.0872C28.0314 22.2484 26.2852 24.0006 24.1335 24.0006C21.9819 24.0006 20.2378 22.2484 20.2378 20.0872C20.2378 19.9463 20.2453 19.8071 20.2597 19.67H9.55716C9.57163 19.8071 9.57904 19.9463 9.57904 20.0872C9.57904 22.2484 7.83463 24.0006 5.683 24.0006C3.53137 24.0006 1.78733 22.2484 1.78733 20.0872C1.78733 19.8981 1.80067 19.7122 1.82646 19.5304C0.773319 19.1714 0.0593151 18.1661 0.435664 17.0518C0.860758 15.7931 1.58427 14.6727 2.5199 13.7715V11.852C2.5199 11.2198 3.11614 10.7121 3.85637 10.7121H11.8751C12.6117 10.7121 13.0599 11.2357 13.2098 11.8442L14.348 16.4486C14.4074 16.6955 14.6286 16.8702 14.8826 16.8702H18.1222C18.3858 16.8702 18.628 16.7189 18.7472 16.4819L19.5893 14.8065C19.7141 14.5573 19.7658 14.2647 19.6794 13.9996L16.9567 5.68242H15.6279C14.9376 5.68242 14.5783 5.38909 14.4034 4.73419Z" fill="#A5A9B2"/>
</svg>
